/* XPM */
static char *exit[] = {
/* columns rows colors chars-per-pixel */
"30 30 2 1 ",
"  c #00FF00",
". c None",
/* pixels */
"..............................",
"..............................",
"..............................",
"..............................",
"..............................",
"..............................",
"..............................",
"..............................",
"..............................",
"..............................",
"..............................",
"..............................",
"..............................",
"..............................",
".................      .......",
"...............          .....",
"...............          .....",
"..............            ....",
"..............            ....",
"..............            ....",
"..............            ....",
"..............            ....",
"..............            ....",
"...............          .....",
"...............          .....",
".................      .......",
"..............................",
"..............................",
"..............................",
".............................."
};
